<svg width="580" height="93" viewBox="0 0 580 93" fill="none" xmlns="http://www.w3.org/2000/svg">
<g id="Vector">
<path d="M123.46 70.7L137.96 89.78H156.2L134.31 62.93L155.92 39.91H138.52L119.62 61.81V21.01H104.93V89.78H119.62V74.91L123.46 70.7ZM182.59 38.6C166.03 38.6 156.3 49.27 156.3 64.8C156.3 80.33 166.03 91.09 182.59 91.09C199.06 91.09 208.88 80.33 208.88 64.8C208.88 49.27 199.06 38.6 182.59 38.6ZM182.59 80.99C175.57 80.99 171.36 75.19 171.36 64.8C171.36 54.42 175.57 48.71 182.59 48.71C189.51 48.71 193.72 54.42 193.72 64.8C193.72 75.19 189.51 80.99 182.59 80.99ZM264.83 52.36C263.71 43.66 257.63 38.6 247.15 38.6C242.47 38.6 238.91 39.54 235.54 41.78L231.43 47.77V39.91H216.74V89.78H231.43V66.67C231.43 53.95 235.73 48.71 241.53 48.71C247.24 48.71 250.05 51.89 250.42 56.94C250.61 59.47 250.61 61.99 250.61 63.87V89.78H265.3V61.62C265.3 57.6 265.2 54.88 264.83 52.36ZM294.86 38.6C282.33 38.6 274.09 44.59 274.09 54.32C274.09 62.84 280.18 67.05 289.53 69.39C298.33 71.44 301.51 73.41 301.51 76.97C301.51 80.15 298.7 81.64 295.15 81.64C291.03 81.64 287.66 79.12 286.63 74.44H272.13C273.44 85.67 282.33 91.09 295.05 91.09C306.75 91.09 316.2 86.23 316.2 75.84C316.2 66.49 310.02 62.46 300.38 60.03C291.5 57.78 288.78 55.91 288.78 52.54C288.78 49.92 290.75 47.96 293.93 47.96C297.58 47.96 299.73 50.3 300.57 54.42H315.07C313.86 45.34 306.93 38.6 294.86 38.6ZM371.21 39.91H356.62V66.58C356.62 75.75 352.69 80.89 346.7 80.89C340.99 80.89 338.37 77.9 337.72 72.85C337.44 70.32 337.34 67.61 337.34 66.02V39.91H322.75V69.2C322.75 73.22 322.84 75.94 323.21 78.46C324.34 85.29 330.51 91.09 340.8 91.09C345.48 91.09 349.04 90.16 352.41 87.91L356.62 81.27V89.78H371.21V39.91ZM396.66 21.01H381.97V73.04C381.97 76.5 381.97 78.93 382.16 81.36C382.53 87.91 386.65 90.62 393.67 90.62C396.94 90.62 399.65 90.44 402.46 90.16V80.15C398.07 80.33 397.04 79.58 396.76 77.34C396.66 76.03 396.66 74.91 396.66 72.75V21.01Z" fill="#716D6C"/>
<path d="M427.16 49.64H437.74V40.29H427.16V27.75H412.47V40.29H404.9V49.64H412.47V72.57C412.47 75.37 412.47 77.62 412.66 80.15C413.22 87.44 416.78 91 427.72 91C430.91 91 433.81 90.72 436.8 90.25V80.89C429.31 81.36 427.63 80.24 427.26 75.28C427.16 73.97 427.16 72.29 427.16 70.6V49.64ZM491.07 63.96C491.07 50.67 482.83 38.6 466.93 38.6C451.11 38.6 441.1 50.02 441.1 64.99C441.1 82.58 452.05 91.09 465.99 91.09C478.15 91.09 487.51 85.01 490.22 73.5H475.72C474.88 78.18 471.42 80.99 466.27 80.99C460.75 80.99 456.63 78.18 455.79 68.64H490.79C490.97 66.86 491.07 65.27 491.07 63.96ZM466.27 48.71C471.7 48.71 474.97 52.36 475.82 59.37H456.17C457.38 51.98 461.03 48.71 466.27 48.71ZM526.71 38.6C523.81 38.6 520.17 39.91 517.64 42.53L513.9 49.46V39.91H499.21V89.78H513.9V68.92C513.9 54.79 518.86 50.11 530.46 50.86V38.98C529.33 38.79 528.3 38.6 526.71 38.6ZM565.54 89.78H579.86C579.11 84.26 578.92 80.89 578.92 77.15V61.99C578.92 59.09 578.83 56.29 578.64 53.95C577.89 45.06 572.56 38.6 557.78 38.6C545.61 38.6 535.98 45.06 535.7 56.47H549.73C550.11 51.52 552.63 48.71 557.22 48.71C561.61 48.71 563.86 51.14 564.14 54.14C564.33 55.82 564.33 57.13 564.33 58.44V59.28H561.15C543.56 59.28 533.92 65.64 533.92 76.5C533.92 85.95 541.5 91.09 549.92 91.09C554.5 91.09 558.71 90.06 562.27 87.82L564.51 82.49L565.54 89.78ZM555.72 80.99C551.7 80.99 548.98 79.02 548.98 75.28C548.98 69.48 555.25 67.23 564.33 67.98V71.63C564.33 77.81 560.12 80.99 555.72 80.99Z" fill="#FDD066"/>
<path fill-rule="evenodd" clip-rule="evenodd" d="M15.46 31.04V76.72H61.15V61.54L76.61 45.96V92.18H0V15.57H46.23L30.64 31.04H15.46Z" fill="#FDD066"/>
<path fill-rule="evenodd" clip-rule="evenodd" d="M65.73 0.12L92.1 0.0799999L76.57 15.63L50.1 15.62L65.73 0.12Z" fill="#716D6C"/>
<path fill-rule="evenodd" clip-rule="evenodd" d="M92.05 26.37L92.08 0L76.53 15.53L76.54 42.01L92.05 26.37Z" fill="#FDD066"/>
</g>
</svg>
